<?xml version="1.0" encoding="UTF-8"?><svg id="_레이어_2" xmlns="http://www.w3.org/2000/svg" viewBox="0 0 23.06 20.23"><defs><style>.cls-1{fill:#343434;}</style></defs><g id="_레이어_1-2"><path id="_패스_2100" class="cls-1" d="m11.14,20.06L1.9,10.9c-.38-.37-.71-.78-.98-1.24C-.61,7.16-.2,3.93,1.9,1.88c2.53-2.52,6.61-2.51,9.13.02.18.18.35.37.51.57,2.2-2.81,6.26-3.3,9.06-1.1.2.16.39.33.57.51,2.08,2.06,2.49,5.27.98,7.78-.27.45-.6.87-.98,1.24l-9.24,9.16c-.21.22-.55.23-.77.02,0,0-.01-.01-.02-.02ZM6.45,1.12c-1.41,0-2.76.56-3.76,1.54-1.71,1.69-2.05,4.34-.81,6.41.23.38.5.72.81,1.04l8.85,8.76,8.85-8.76c.32-.31.59-.66.82-1.04,1.25-2.06.91-4.72-.82-6.41-1.01-.99-2.36-1.54-3.76-1.55-1.89,0-3.64.99-4.61,2.61-.17.27-.52.36-.8.19-.08-.05-.14-.11-.19-.19-.95-1.63-2.7-2.63-4.58-2.61Z"/></g></svg>