<?xml version="1.0" encoding="UTF-8"?><svg id="_레이어_2" xmlns="http://www.w3.org/2000/svg" viewBox="0 0 23.75 25"><defs><style>.cls-1{fill:#c7caed;isolation:isolate;opacity:.6;}</style></defs><g id="_레이어_1-2"><path id="ecec16d258374996df925a33c046925c" class="cls-1" d="m12.77,0c.68-.02,1.34.24,1.82.71.48.46.76,1.11.75,1.77.02,1.39,1.15,2.5,2.54,2.49,0,0,0,0,0,0,.44,0,.88-.12,1.26-.34,1.2-.65,2.7-.24,3.41.93h0l.85,1.46c.22.38.33.8.34,1.24,0,.89-.49,1.72-1.27,2.15-.39.22-.71.53-.94.91-.66,1.18-.24,2.67.94,3.34,0,0,0,0,0,0,1.19.67,1.61,2.18.94,3.37,0,0,0,0,0,0h0l-.85,1.41c-.46.78-1.29,1.25-2.19,1.25-.45,0-.89-.11-1.27-.34-.39-.21-.83-.33-1.28-.34-.67,0-1.32.26-1.8.74-.48.46-.75,1.1-.75,1.76-.02,1.39-1.16,2.5-2.55,2.48,0,0,0,0,0,0h-1.71c-.67,0-1.3-.27-1.78-.74-.47-.46-.73-1.09-.72-1.75-.01-1.38-1.14-2.5-2.52-2.49,0,0,0,0-.01,0-.46,0-.91.12-1.3.36-.59.32-1.28.41-1.94.25-.65-.17-1.2-.59-1.55-1.16h0l-.8-1.41c-.37-.58-.49-1.29-.31-1.95.18-.67.63-1.23,1.23-1.56.39-.21.71-.53.94-.91.65-1.18.23-2.67-.94-3.34-1.17-.65-1.59-2.14-.94-3.31,0,0,.01-.02.02-.03H.39l.8-1.4c.34-.59.9-1.02,1.56-1.19.66-.17,1.36-.08,1.95.26.39.21.83.32,1.28.32.67,0,1.32-.26,1.8-.72.47-.46.74-1.09.74-1.75C8.53,1.1,9.67-.01,11.06,0c0,0,0,0,0,0h1.7Zm.5,9.35c-1.31-.54-2.82-.25-3.84.74-1,.97-1.31,2.46-.76,3.74.55,1.3,1.83,2.13,3.24,2.12h.01c.93.01,1.82-.35,2.47-1,.66-.63,1.04-1.51,1.04-2.43,0-1.4-.86-2.66-2.16-3.17h0Z"/></g></svg>