<?xml version="1.0" encoding="UTF-8"?><svg id="_레이어_2" xmlns="http://www.w3.org/2000/svg" viewBox="0 0 22.26 23.43"><defs><style>.cls-1{fill:#fff;}</style></defs><g id="_레이어_1-2"><path id="ecec16d258374996df925a33c046925c" class="cls-1" d="m11.96,0c.64-.02,1.25.22,1.71.67.45.43.71,1.04.7,1.66.01,1.3,1.08,2.35,2.39,2.33,0,0,0,0,0,0,.41,0,.82-.11,1.18-.32,1.13-.61,2.54-.23,3.2.87h0l.8,1.37c.2.35.31.75.32,1.16,0,.84-.46,1.61-1.19,2.02-.36.2-.67.5-.88.86-.62,1.11-.23,2.5.88,3.13,1.11.63,1.51,2.04.88,3.15,0,0,0,0,0,0h0l-.8,1.33c-.43.73-1.2,1.17-2.05,1.17-.42,0-.84-.11-1.2-.32-.37-.2-.78-.31-1.2-.32-.63,0-1.24.25-1.68.69-.45.43-.7,1.03-.7,1.65-.02,1.3-1.09,2.34-2.39,2.32,0,0,0,0,0,0h-1.6c-.62,0-1.22-.25-1.66-.69-.44-.43-.68-1.02-.68-1.64,0-1.3-1.07-2.34-2.37-2.33,0,0-.01,0-.02,0-.43,0-.85.12-1.22.34-.55.3-1.2.39-1.82.23-.61-.16-1.13-.55-1.45-1.09h0l-.74-1.32c-.35-.54-.46-1.2-.29-1.82.17-.63.59-1.15,1.16-1.46.37-.2.67-.49.88-.86.61-1.11.22-2.5-.88-3.13-1.1-.61-1.49-2-.88-3.1,0,0,.01-.02.02-.03H.37l.75-1.31c.32-.55.85-.95,1.47-1.11.62-.16,1.27-.07,1.83.25.37.2.78.3,1.2.3.63,0,1.23-.24,1.68-.67.44-.43.69-1.02.69-1.64C8,1.03,9.06-.01,10.36,0c0,0,0,0,0,0h1.59Zm.47,8.76c-1.23-.51-2.64-.24-3.6.69-.94.91-1.22,2.3-.71,3.5.52,1.21,1.71,2,3.03,1.99h.01c.87.01,1.7-.33,2.32-.94.62-.59.97-1.41.97-2.27,0-1.31-.8-2.49-2.02-2.97Z"/></g></svg>