<?xml version="1.0" encoding="UTF-8"?><svg id="_레이어_2" xmlns="http://www.w3.org/2000/svg" viewBox="0 0 25 25"><defs><style>.cls-1{fill:#5762ea;}</style></defs><g id="_레이어_1-2"><path id="_6e74f5c3dc295d3d068750f075cd8b4b" class="cls-1" d="m12.5,0C5.6,0,0,5.6,0,12.5s5.6,12.5,12.5,12.5,12.5-5.6,12.5-12.5C24.98,5.6,19.4.02,12.5,0Zm2.5,17.12c-.6.35-1.38.14-1.73-.46,0-.01-.01-.03-.02-.04l-1.88-3.5c-.1-.19-.14-.41-.12-.62v-6.25c0-.69.56-1.25,1.25-1.25s1.25.56,1.25,1.25v5.88l1.75,3.25c.29.63.08,1.37-.5,1.75Z"/></g></svg>