<?xml version="1.0" encoding="UTF-8"?><svg id="_레이어_2" xmlns="http://www.w3.org/2000/svg" xmlns:xlink="http://www.w3.org/1999/xlink" viewBox="0 0 23.42 23.42"><defs><style>.cls-1,.cls-2{fill:none;}.cls-3{fill:#5762ea;}.cls-2{clip-path:url(#clippath);}</style><clipPath id="clippath"><rect class="cls-1" width="23.42" height="23.42"/></clipPath></defs><g id="_레이어_1-2"><g class="cls-2"><g id="a35d8edff5b9e20a259d41dc8df5e630"><path id="_패스_2089" class="cls-3" d="m17.88,8.63c0,6.78,3.08,6.16,3.08,9.25.01.67-.51,1.22-1.18,1.23-.02,0-.04,0-.05,0H3.7c-.67.01-1.22-.51-1.23-1.18,0-.02,0-.04,0-.05,0-3.08,3.08-2.47,3.08-9.25,0-3.4,2.76-6.16,6.17-6.16,0,0,0,0,0,0,3.4,0,6.16,2.76,6.16,6.16"/><path id="_패스_2090" class="cls-3" d="m13.56,2.47c0-1.02-.83-1.85-1.85-1.85,0,0,0,0,0,0-1.02,0-1.85.83-1.85,1.85,0,0,0,0,0,0,0,1.02.83,1.85,1.85,1.85h0c1.02,0,1.85-.83,1.85-1.85,0,0,0,0,0,0"/><path id="_패스_2091" class="cls-3" d="m11.71,22.81c1.36,0,2.47-1.1,2.47-2.47h-4.93c0,1.36,1.1,2.47,2.47,2.47h0"/></g></g></g></svg>