<?xml version="1.0" encoding="UTF-8"?><svg id="_레이어_2" xmlns="http://www.w3.org/2000/svg" viewBox="0 0 513.52 161.32"><defs><style>.cls-1{fill:none;}.cls-2{fill:#fff;}</style></defs><g id="_레이어_1-2"><path class="cls-2" d="m3.22,16.17c0-1.88.22-3.6.66-5.17.44-1.57,1.29-2.95,2.54-4.14,1.25-1.19,3.01-2.13,5.26-2.82,2.26-.68,5.14-1.03,8.65-1.03h58.66c3.51,0,6.4.35,8.65,1.03,2.26.7,4.01,1.64,5.26,2.82,1.25,1.19,2.1,2.57,2.54,4.14.44,1.57.66,3.29.66,5.17,0,1.5-.22,3.04-.66,4.61-.44,1.57-1.29,2.95-2.54,4.13-1.25,1.19-3.01,2.17-5.26,2.91-2.26.76-5.14,1.13-8.65,1.13h-11.84v51.7c0,5.26.47,10.09,1.41,14.48.94,4.39,2.51,8.5,4.71,12.32,2.19,3.83,5.01,7.52,8.46,11.09,3.44,3.57,7.67,7.12,12.69,10.63,4.01,2.88,6.67,6.14,7.99,9.78,1.32,3.63.72,7.45-1.78,11.47-1.38,2.13-3.05,3.73-4.99,4.8-1.94,1.06-4.04,1.65-6.3,1.78-1.38,0-2.82-.16-4.32-.47-1.51-.32-2.95-.98-4.33-1.97-6.01-4.14-11.31-8.71-15.88-13.73-4.58-5.01-8.62-10.28-12.13-15.79-3.39,6.02-7.31,11.53-11.75,16.55-4.45,5.01-9.43,9.27-14.95,12.78-3.39,2.13-7.15,3.32-11.28,3.57-2.13.12-4.32-.25-6.58-1.13-2.26-.87-4.14-2.57-5.64-5.07-2.51-4.02-3.11-7.83-1.79-11.47,1.32-3.64,3.98-6.89,8-9.78,5.01-3.51,9.24-7.12,12.69-10.81,3.44-3.7,6.27-7.55,8.46-11.57,2.19-4.01,3.76-8.27,4.7-12.78.94-4.51,1.41-9.4,1.41-14.67V28.96h-15.6c-3.51,0-6.4-.37-8.65-1.13-2.26-.75-4.01-1.72-5.26-2.91-1.25-1.19-2.1-2.56-2.54-4.13-.44-1.57-.66-3.11-.66-4.61Zm123.35.18c0-6.27,1.53-10.56,4.61-12.88,3.07-2.32,6.61-3.48,10.63-3.48,2,0,3.92.25,5.73.75,1.82.5,3.41,1.38,4.8,2.63,1.38,1.25,2.5,2.95,3.38,5.08.88,2.13,1.32,4.77,1.32,7.9v128.43c0,3.25-.44,5.95-1.32,8.08-.88,2.13-2,3.83-3.38,5.08-1.38,1.25-2.98,2.13-4.8,2.63-1.81.5-3.73.75-5.73.75s-3.92-.25-5.74-.75c-1.82-.5-3.45-1.38-4.89-2.63-1.44-1.25-2.57-2.95-3.38-5.08-.82-2.13-1.22-4.83-1.22-8.08V16.36Z"/><path class="cls-2" d="m229.6.57c6.89,0,12.79.84,17.68,2.54,4.89,1.69,8.9,4.16,12.03,7.42,3.14,3.27,5.52,7.31,7.15,12.13,1.63,4.83,2.63,10.31,3.01,16.46,0,1.12.02,3.79.09,7.99.06,4.2.09,9.19.09,14.95s.03,11.91.09,18.43c.07,6.52.07,12.66,0,18.42-.06,5.77-.12,10.75-.18,14.95-.07,4.2-.09,6.8-.09,7.8-.25,12.65-3.42,22.12-9.5,28.39-6.07,6.27-16.2,9.4-30.37,9.4-7.27,0-13.34-.81-18.23-2.44-4.89-1.63-8.87-4.04-11.94-7.24-3.08-3.2-5.36-7.15-6.86-11.84-1.51-4.71-2.44-10.12-2.82-16.27-.12-1.13-.18-3.79-.18-8s-.03-9.18-.1-14.95c-.06-5.76-.09-11.9-.09-18.42s.03-12.66.09-18.42c.07-5.77.1-10.72.1-14.86s.06-6.77.18-7.9c.38-6.27,1.29-11.78,2.73-16.55,1.44-4.76,3.7-8.77,6.76-12.03,3.08-3.26,7.05-5.73,11.94-7.42,4.89-1.7,11.03-2.54,18.42-2.54Zm9.4,37.79c0-2.64-.28-4.77-.84-6.4-.57-1.63-1.32-2.85-2.26-3.66-.94-.82-1.97-1.35-3.11-1.6-1.12-.25-2.2-.37-3.2-.37s-2.04.15-3.1.47-2.04.91-2.91,1.79c-.88.87-1.63,2.16-2.26,3.85-.63,1.7-1,3.86-1.12,6.49-.13,1.13-.19,3.83-.19,8.09s-.03,9.28-.09,15.04c-.07,5.77-.09,11.91-.09,18.43s.02,12.66.09,18.42c.06,5.77.09,10.75.09,14.95s.06,6.8.19,7.8c0,2.88.28,5.1.84,6.67.57,1.57,1.29,2.79,2.17,3.66.87.88,1.88,1.42,3.01,1.6,1.13.19,2.26.28,3.38.28,1,0,2.04-.09,3.11-.28,1.06-.18,2.04-.72,2.91-1.6s1.63-2.1,2.26-3.66c.63-1.57,1-3.79,1.12-6.67,0-1.13.03-3.83.1-8.09.06-4.26.09-9.31.09-15.13v-37.05c0-5.83-.03-10.84-.09-15.04-.07-4.2-.1-6.86-.1-7.99Zm54.34-22c0-6.27,1.53-10.56,4.61-12.88,3.07-2.32,6.61-3.48,10.62-3.48,2,0,3.92.25,5.74.75,1.81.5,3.41,1.38,4.8,2.63,1.38,1.25,2.5,2.95,3.38,5.08.87,2.13,1.32,4.77,1.32,7.9v45.12h11.84c3.51,0,6.4.38,8.65,1.13,2.26.75,4.01,1.72,5.26,2.91s2.1,2.57,2.54,4.13c.44,1.58.66,3.11.66,4.61,0,1.87-.22,3.6-.66,5.16-.44,1.57-1.29,2.95-2.54,4.14-1.25,1.19-3.01,2.13-5.26,2.82-2.26.69-5.14,1.03-8.65,1.03h-11.84v57.35c0,3.25-.44,5.95-1.32,8.08-.88,2.13-2,3.83-3.38,5.08-1.38,1.25-2.98,2.13-4.8,2.63-1.82.5-3.73.75-5.74.75s-3.92-.25-5.73-.75c-1.82-.5-3.45-1.38-4.89-2.63-1.45-1.25-2.57-2.95-3.39-5.08-.81-2.13-1.22-4.83-1.22-8.08V16.36Z"/><circle class="cls-2" cx="498.29" cy="15.23" r="15.23"/><path class="cls-1" d="m416.31,61.39c0-5.83-.03-10.84-.09-15.04-.07-4.2-.09-6.86-.09-7.99,0-2.64-.31-4.77-.94-6.4s-1.45-2.85-2.45-3.66c-1-.82-2.1-1.35-3.29-1.6-1.19-.25-2.29-.37-3.29-.37s-2.07.15-3.2.47c-1.12.31-2.16.91-3.1,1.79-.94.87-1.76,2.16-2.45,3.85-.69,1.7-1.09,3.86-1.22,6.49,0,1.13-.04,3.83-.1,8.09s-.12,9.28-.18,15.04c-.07,5.77-.1,11.91-.1,18.43s.03,12.66.1,18.42c.06,5.77.09,10.75.09,14.95s.06,6.8.19,7.8c0,2.88.31,5.1.93,6.67.63,1.57,1.42,2.79,2.36,3.66.94.88,2,1.42,3.19,1.6,1.19.19,2.36.28,3.48.28,1,0,2.07-.09,3.2-.28,1.12-.18,2.17-.72,3.1-1.6.94-.87,1.76-2.1,2.45-3.66.69-1.57,1.09-3.79,1.22-6.67,0-1.13.02-3.83.09-8.09.06-4.26.09-25.53.09-31.09v-21.09Z"/><path class="cls-2" d="m512.2,45.42c-.88-1.61-2-2.9-3.38-3.85-1.38-.95-2.98-1.61-4.8-2-1.82-.38-3.73-.57-5.74-.57-4.01,0-7.55.88-10.62,2.64-3.08,1.76-4.61,5.01-4.61,9.76v97.37c0,2.47.41,4.51,1.22,6.13.82,1.62,1.94,2.9,3.39,3.85,1.44.95,3.07,1.61,4.89,2,1.81.38,3.73.57,5.73.57s3.92-.19,5.74-.57c1.81-.38,3.41-1.05,4.8-2,1.38-.95,2.5-2.23,3.38-3.85.87-1.61,1.32-3.66,1.32-6.13V51.41c0-2.37-.44-4.37-1.32-5.99Z"/><path class="cls-2" d="m446.87,82.13c-.07-6.52-.09-14.31-.09-20.08s-.04-10.75-.1-14.95c-.06-4.19-.09-6.86-.09-7.99-.37-6.14-1.41-11.63-3.11-16.46-1.69-4.82-4.13-8.86-7.33-12.13-3.2-3.26-7.27-5.73-12.22-7.42-4.96-1.7-10.88-2.54-17.77-2.54-7.4,0-13.57.84-18.52,2.54-4.95,1.69-8.99,4.16-12.13,7.42-3.13,3.27-5.45,7.28-6.95,12.03-1.51,4.77-2.45,10.28-2.82,16.55-.12,1.12-.18,3.76-.18,7.9s-.04,9.09-.1,14.86c-.06,5.76-.09,11.9-.09,18.42s.03,12.66.09,18.42c.06,5.77.1,10.75.1,14.95s.06,6.86.18,8c.37,6.14,1.35,11.56,2.92,16.27,1.57,4.7,3.92,8.65,7.05,11.84,3.13,3.2,7.18,5.61,12.13,7.24,4.95,1.63,11.06,2.44,18.33,2.44,14.16,0,24.38-3.13,30.65-9.4,6.27-6.27,9.53-15.74,9.78-28.39,0-1,.03-3.6.09-7.8s3.25-8.27.31-11.11c-4.53-4.35-40.58-4.81-42.73.21-2.86,5.41,12.01,6.36,11.95,10.62-.07,4.26-.09,6.95-.09,8.09-.13,2.88-.54,5.1-1.22,6.67-.69,1.57-1.51,2.79-2.45,3.66-.93.88-1.97,1.42-3.1,1.6-1.13.19-2.2.28-3.2.28-1.12,0-2.29-.09-3.48-.28-1.19-.18-2.25-.72-3.19-1.6-.94-.87-1.73-2.1-2.36-3.66-.63-1.57-.93-3.79-.93-6.67-.13-1-.19-3.6-.19-7.8s-.03-9.18-.09-14.95c-.07-5.76-.1-11.9-.1-18.42s.03-12.66.1-18.43c.06-5.76.12-10.78.18-15.04s.1-6.95.1-8.09c.12-2.63.53-4.79,1.22-6.49.69-1.69,1.51-2.98,2.45-3.85.94-.88,1.97-1.48,3.1-1.79,1.13-.31,2.2-.47,3.2-.47s2.1.12,3.29.37c1.19.25,2.29.78,3.29,1.6,1,.81,1.82,2.04,2.45,3.66s.94,3.76.94,6.4c0,1.12.02,3.79.09,7.99.06,4.2.09,9.21.09,15.04v21.09l30.56-.35Z"/><rect class="cls-2" x="416.31" y="74.64" width="30.56" height="15.41" rx="5.88" ry="5.88"/></g></svg>