<?xml version="1.0" encoding="UTF-8"?><svg id="_레이어_2" xmlns="http://www.w3.org/2000/svg" viewBox="0 0 23.75 25"><defs><style>.cls-1{fill:#5762ea;}</style></defs><g id="_레이어_1-2"><path id="_2ae66759f9bda47bb5a4c88130dd24db" class="cls-1" d="m8.29,23.47v-3.82c0-.98.8-1.77,1.78-1.77,0,0,0,0,0,0h3.59c.47,0,.92.19,1.26.52.33.33.52.78.52,1.25v3.82c0,.41.16.8.44,1.08.29.29.68.45,1.09.45h2.45c1.14,0,2.24-.45,3.05-1.25.81-.8,1.27-1.89,1.27-3.03v-10.89c0-.92-.41-1.79-1.12-2.38L14.29.84c-1.45-1.16-3.53-1.12-4.94.09L1.21,7.46c-.74.57-1.19,1.44-1.21,2.38v10.88c0,2.37,1.94,4.3,4.31,4.29,0,0,0,0,0,0h2.4c.84,0,1.53-.68,1.54-1.52h.03Z"/></g></svg>