<?xml version="1.0" encoding="UTF-8"?><svg id="_레이어_2" xmlns="http://www.w3.org/2000/svg" viewBox="0 0 259.71 260.18"><defs><style>.cls-1{fill:#5762ea;}</style></defs><g id="_레이어_1-2"><path class="cls-1" d="m199.16,144.48c-6.64,32.06-35.04,56.15-69.06,56.15-38.96,0-70.54-31.58-70.54-70.54s31.58-70.54,70.54-70.54c10.09,0,19.68,2.13,28.35,5.95,0,0,8.3,3.45,11.9,3.02,10.84-1.2,33.09-25.54,35-39.11.54-4.69-4.13-8.25-4.13-8.25C180.78,7.79,156.35,0,130.09,0,58.24,0,0,58.24,0,130.09s58.24,130.09,130.09,130.09c67.69,0,123.29-51.7,129.51-117.76,0,0,1.35-20.21-5.45-28.62-6.81-8.41-101.15-13.54-106.27,1.4-5.12,14.94,51.28,29.28,51.28,29.28Z"/><circle class="cls-1" cx="235.76" cy="82" r="15.02"/></g></svg>